<svg xmlns="http://www.w3.org/2000/svg" width="2084.2" height="1426.9" viewBox="0 0 2084.2 1426.9">
  <defs>
    <style>
      .cls-1 {
        isolation: isolate;
      }

      .cls-2 {
        fill: #e0f3f9;
      }

      .cls-3 {
        fill: #c6c8d4;
      }

      .cls-4 {
        fill: #2b3038;
      }

      .cls-5 {
        fill: #edeef3;
      }

      .cls-6 {
        fill: #faa339;
      }

      .cls-7 {
        mix-blend-mode: multiply;
      }

      .cls-8 {
        fill: #d1d3d4;
      }

      .cls-9 {
        fill: #fff;
      }

      .cls-10 {
        fill: #39b54a;
      }

      .cls-11 {
        fill: #7fa53f;
      }

      .cls-12 {
        fill: #c1e4f0;
      }

      .cls-13 {
        fill: #d9f0fd;
      }

      .cls-14 {
        fill: #f1f2f2;
      }

      .cls-15 {
        fill: #cd7829;
      }

      .cls-16 {
        fill: #ededee;
      }

      .cls-17 {
        fill: #ebf7fe;
      }

      .cls-18 {
        fill: #8f9096;
      }

      .cls-19 {
        fill: #e6e7e8;
      }

      .cls-20 {
        fill: #ffdf7d;
      }

      .cls-21 {
        fill: #4b515c;
      }

      .cls-22 {
        fill: #dddee3;
      }

      .cls-23 {
        fill: #57595e;
      }

      .cls-24 {
        fill: #dcddde;
      }

      .cls-25 {
        fill: #e44d3f;
      }

      .cls-26 {
        fill: #ed1c24;
      }

      .cls-27 {
        fill: #a13429;
      }

      .cls-28 {
        fill: #3a4049;
      }

      .cls-29 {
        fill: #fde0cf;
      }

      .cls-30 {
        fill: #e76b43;
      }

      .cls-31 {
        fill: #fdc34e;
      }

      .cls-32 {
        fill: #eaa33d;
      }

      .cls-33 {
        fill: #8dc63f;
      }
    </style>
  </defs>
  <title>تصميم متجر الكتروني</title>
  <g class="cls-1">
    <g id="Layer_1" data-name="Layer 1">
      <path class="cls-2" d="M835.8,1056.2H684.1a5.2,5.2,0,0,1-5.2-5.2,5.2,5.2,0,0,1,5.2-5.2H835.8a5.1,5.1,0,0,1,5.1,5.2,5.2,5.2,0,0,1-5.1,5.2Z" transform="translate(-192.8 -629)"/>
      <path class="cls-2" d="M657.4,1056.2H619a5.2,5.2,0,0,1-5.2-5.2,5.2,5.2,0,0,1,5.2-5.2h38.4a5.1,5.1,0,0,1,5.1,5.2,5.2,5.2,0,0,1-5.1,5.2Z" transform="translate(-192.8 -629)"/>
      <path d="M236.4,1872.2H198a5.2,5.2,0,0,1-5.2-5.2,5.2,5.2,0,0,1,5.2-5.2h38.4a5.1,5.1,0,0,1,5.1,5.2,5.2,5.2,0,0,1-5.1,5.2Z" transform="translate(-192.8 -629)"/>
      <path class="cls-2" d="M933.4,892.6H805.8a5.2,5.2,0,0,1,0-10.3H933.4a5.2,5.2,0,1,1,0,10.3Z" transform="translate(-192.8 -629)"/>
      <path class="cls-2" d="M594.8,961.7h-.7a5.1,5.1,0,0,1-4.4-5.9c6.3-42.6,43.5-74.7,86.5-74.7a85.1,85.1,0,0,1,19.5,2.2c2.3-91.1,77.1-164.5,168.7-164.5,58.5,0,111.5,29.5,142.7,79.1a91.5,91.5,0,0,1,98.1,39.7,5.1,5.1,0,0,1-1.5,7.1,5.2,5.2,0,0,1-7.2-1.5,81.2,81.2,0,0,0-90.4-34.4,5.3,5.3,0,0,1-5.9-2.3c-28.9-48.4-79.7-77.3-135.8-77.3-87.3,0-158.4,71-158.4,158.3v2.5a5,5,0,0,1-2,4.2,5.3,5.3,0,0,1-4.7.8,79.1,79.1,0,0,0-23.2-3.5c-37.9,0-70.7,28.3-76.3,65.9a5.1,5.1,0,0,1-5.1,4.4Z" transform="translate(-192.8 -629)"/>
      <path class="cls-2" d="M1880.8,992.7H1545.1a5.2,5.2,0,1,1,0-10.3h335.7a5.2,5.2,0,1,1,0,10.3Z" transform="translate(-192.8 -629)"/>
      <path class="cls-2" d="M1608.2,920.9h-63.1a5.2,5.2,0,1,1,0-10.3h58.6a46.2,46.2,0,0,1,70-30.7,109.1,109.1,0,0,1,192.2-47.8,59.4,59.4,0,0,1,53.8,54h68.6a5.2,5.2,0,0,1,0,10.3h-73.6a5.2,5.2,0,0,1-5.2-5.2,49.1,49.1,0,0,0-46.5-49,4.8,4.8,0,0,1-3.8-2A98.9,98.9,0,0,0,1682.6,890a5,5,0,0,1-3.3,4.3,5.1,5.1,0,0,1-5.4-1.1,35.4,35.4,0,0,0-24.8-10,36.1,36.1,0,0,0-35.8,33,5,5,0,0,1-5.1,4.7Z" transform="translate(-192.8 -629)"/>
      <path class="cls-2" d="M2019.8,940H1820.4a5.2,5.2,0,0,1,0-10.3h199.4a5.2,5.2,0,0,1,0,10.3Z" transform="translate(-192.8 -629)"/>
      <path class="cls-2" d="M1793.7,940h-38.4a5.2,5.2,0,1,1,0-10.3h38.4a5.2,5.2,0,1,1,0,10.3Z" transform="translate(-192.8 -629)"/>
      <path class="cls-2" d="M1479.5,801.7H1326a5.2,5.2,0,0,1-5.2-5.2,5.2,5.2,0,0,1,5.2-5.2h153.5a5.2,5.2,0,0,1,5.2,5.2,5.2,5.2,0,0,1-5.2,5.2Z" transform="translate(-192.8 -629)"/>
      <path class="cls-2" d="M1392,766H1087.3a5.2,5.2,0,1,1,0-10.3H1392a5.2,5.2,0,1,1,0,10.3Z" transform="translate(-192.8 -629)"/>
      <path class="cls-2" d="M1520.8,801.7h-18.2a5.2,5.2,0,0,1-5.2-5.2,5.2,5.2,0,0,1,5.2-5.2h18.2a5.3,5.3,0,0,1,5.2,5.2,5.2,5.2,0,0,1-5.2,5.2Z" transform="translate(-192.8 -629)"/>
      <path class="cls-2" d="M1903.7,992.7h-2.8a5.2,5.2,0,1,1,0-10.3h2.8a5.2,5.2,0,1,1,0,10.3Z" transform="translate(-192.8 -629)"/>
      <path class="cls-2" d="M783.3,961.7H482.1a5.2,5.2,0,1,1,0-10.4H783.3a5.2,5.2,0,0,1,0,10.4Z" transform="translate(-192.8 -629)"/>
      <path class="cls-2" d="M820.9,961.7h-9.2a5.2,5.2,0,0,1,0-10.4h9.2a5.2,5.2,0,1,1,0,10.4Z" transform="translate(-192.8 -629)"/>
      <path class="cls-2" d="M1197.2,766a3.9,3.9,0,0,1-1.5-.2,5.2,5.2,0,0,1-3.5-6.4,49.7,49.7,0,0,1,47.4-35.9,40.7,40.7,0,0,1,8.4.9A131.5,131.5,0,0,1,1374.6,629c72.7,0,131.8,59.2,131.8,131.8a5.2,5.2,0,0,1-5.2,5.2,5.2,5.2,0,0,1-5.2-5.2,121.4,121.4,0,0,0-239.3-29,4.9,4.9,0,0,1-2.4,3.2,5.1,5.1,0,0,1-4,.5,38.6,38.6,0,0,0-48.2,26.8,5.1,5.1,0,0,1-4.9,3.7Z" transform="translate(-192.8 -629)"/>
      <path class="cls-2" d="M1649.6,734.8h-66.5a5.2,5.2,0,0,1,0-10.3h66.5a5.2,5.2,0,1,1,0,10.3Z" transform="translate(-192.8 -629)"/>
      <path class="cls-2" d="M1557.3,734.8h-60a5.2,5.2,0,1,1,0-10.3h60a5.2,5.2,0,0,1,0,10.3Z" transform="translate(-192.8 -629)"/>
      <g>
        <rect class="cls-3" x="519.7" y="693.5" width="164.2" height="19.06"/>
        <path class="cls-4" d="M876.7,1346.7H712.5a5.2,5.2,0,0,1-5.2-5.2v-19a5.2,5.2,0,0,1,5.2-5.2H876.7a5.1,5.1,0,0,1,5.1,5.2v19a5.1,5.1,0,0,1-5.1,5.2Zm-159-10.3H871.5v-8.7H717.7v8.7Z" transform="translate(-192.8 -629)"/>
      </g>
      <g>
        <path class="cls-5" d="M712.5,1332a18.2,18.2,0,1,0-18.1,18.1A18.1,18.1,0,0,0,712.5,1332Z" transform="translate(-192.8 -629)"/>
        <path class="cls-4" d="M694.4,1355.3a23.3,23.3,0,1,1,23.3-23.3,23.3,23.3,0,0,1-23.3,23.3Zm0-36.2a13,13,0,1,0,12.9,12.9,13,13,0,0,0-12.9-12.9Z" transform="translate(-192.8 -629)"/>
      </g>
      <path class="cls-6" d="M719.5,1366v105.5c0,13.6,64.7,36.9,64.7,36.9s64.7-23.3,64.7-36.9V1366Z" transform="translate(-192.8 -629)"/>
      <path class="cls-4" d="M784.2,1513.5a4.7,4.7,0,0,1-1.7-.3c-25.5-9.1-68.2-26.7-68.2-41.7V1366a5.2,5.2,0,0,1,5.2-5.2H848.9a5.2,5.2,0,0,1,5.2,5.2v105.5c0,15-42.7,32.6-68.1,41.7a5.7,5.7,0,0,1-1.8.3Zm-59.5-142.4v100.4c1.1,5.5,28.7,20.1,59.5,31.4,30.8-11.3,58.4-25.9,59.6-31.5V1371.1Z" transform="translate(-192.8 -629)"/>
      <path class="cls-4" d="M784.2,1493l-1.3-.2c-20.2-7.3-67.3-25.8-67.3-40.6v-3.8h7.8v3.8c0,5.7,28.2,20.9,60.8,32.8,32.6-11.9,60.8-27.1,60.8-32.8v-3.8h7.8v3.8c0,14.8-47,33.3-67.3,40.6l-1.3.2Z" transform="translate(-192.8 -629)"/>
      <path class="cls-4" d="M745.4,1391.2a3.8,3.8,0,0,1-3.9-3.9v-73a3.9,3.9,0,0,1,3.9-3.9,4,4,0,0,1,3.9,3.9v73a3.9,3.9,0,0,1-3.9,3.9Z" transform="translate(-192.8 -629)"/>
      <path class="cls-4" d="M823,1391.2a3.9,3.9,0,0,1-3.9-3.9v-73a4,4,0,0,1,3.9-3.9,3.9,3.9,0,0,1,3.9,3.9v73a3.8,3.8,0,0,1-3.9,3.9Z" transform="translate(-192.8 -629)"/>
      <path class="cls-4" d="M751.2,1387.3a5.8,5.8,0,1,0-5.8,5.8A5.8,5.8,0,0,0,751.2,1387.3Z" transform="translate(-192.8 -629)"/>
      <path class="cls-4" d="M828.8,1387.3a5.8,5.8,0,1,0-5.8,5.8A5.8,5.8,0,0,0,828.8,1387.3Z" transform="translate(-192.8 -629)"/>
      <g class="cls-7">
        <path class="cls-8" d="M791.4,1423.9l1.4.7,1.5.6,3.1,1.6a36.2,36.2,0,0,1,6.3,4.1c4.6,3.9,6.9,8.6,6.9,14.2s-2.1,10.8-6.2,14.3-9.7,5.3-16.8,5.3a32.5,32.5,0,0,1-14.7-3.5,26,26,0,0,1-4.5-2.8l-1.5-1.2-1-.9a.6.6,0,0,1,0-.9l5.6-5.3a.7.7,0,0,1,.9,0l.7.7,1.1.8a33,33,0,0,0,3.2,1.8,23.8,23.8,0,0,0,10.2,2.3c9.3,0,14-3.5,14-10.6a9.4,9.4,0,0,0-3.6-7.2c-2-1.7-5.4-3.6-10.3-5.8h-.1l-2.3-1.2-1.3-.5-1.3-.6-2.8-1.4a33.1,33.1,0,0,1-5.7-3.7,16.3,16.3,0,0,1-6.1-12.9c0-5.5,1.8-9.8,5.5-12.9s8.8-4.8,15.2-4.8a29.3,29.3,0,0,1,13.1,3,28,28,0,0,1,4.1,2.5l1.4,1.1.9.8c.3.3.3.6,0,1l-2.8,2.6-2.8,2.6a.6.6,0,0,1-.9.1l-.6-.6-.9-.7a19.1,19.1,0,0,0-2.8-1.5,19.8,19.8,0,0,0-8.7-2c-7.8,0-11.8,3-11.8,8.8a7.7,7.7,0,0,0,3,6c1.7,1.5,4.7,3.1,9,5h.1Z" transform="translate(-192.8 -629)"/>
      </g>
      <path class="cls-9" d="M786.6,1419.2l1.4.6,1.5.7,3.2,1.5a33.5,33.5,0,0,1,6.2,4.2,17.7,17.7,0,0,1,6.9,14.1c0,6.1-2.1,10.8-6.2,14.3s-9.7,5.3-16.7,5.3a33.7,33.7,0,0,1-14.7-3.4,35.8,35.8,0,0,1-4.6-2.9,15.8,15.8,0,0,1-1.5-1.2,3.9,3.9,0,0,1-1-.8.7.7,0,0,1,0-1l5.6-5.3a.7.7,0,0,1,.9,0l.8.7,1.1.8a19.3,19.3,0,0,0,3.2,1.9,23.1,23.1,0,0,0,10.2,2.2c9.3,0,13.9-3.5,13.9-10.6a9.2,9.2,0,0,0-3.5-7.1c-2-1.8-5.5-3.7-10.3-5.9h-.2l-2.3-1.1-1.2-.6-1.4-.6-2.8-1.4a27.2,27.2,0,0,1-5.6-3.7,16.1,16.1,0,0,1-6.2-12.9c0-5.5,1.8-9.8,5.6-12.9s8.7-4.8,15.1-4.8a29.7,29.7,0,0,1,13.2,3,27.5,27.5,0,0,1,4,2.6,7.1,7.1,0,0,1,1.4,1l.9.8c.4.3.4.6,0,1l-2.7,2.6-2.8,2.6c-.4.3-.6.3-.9.1l-.7-.6-.9-.7a15.1,15.1,0,0,0-2.8-1.5,19.8,19.8,0,0,0-8.7-1.9q-11.7,0-11.7,8.7a7.9,7.9,0,0,0,3,6.1c1.6,1.4,4.6,3,8.9,4.9h.1Z" transform="translate(-192.8 -629)"/>
      <g>
        <g>
          <polygon class="cls-4" points="593.5 906.5 589.4 906.5 589.4 883.1 593.5 883.1 593.5 906.5 593.5 906.5"/>
          <polygon class="cls-4" points="615.1 898 610.9 898 610.9 874.6 615.1 874.6 615.1 898 615.1 898"/>
          <polygon class="cls-4" points="636.6 887.8 632.5 887.8 632.5 864.4 636.6 864.4 636.6 887.8 636.6 887.8"/>
          <polygon class="cls-4" points="658.2 869.6 654.1 869.6 654.1 846.2 658.2 846.2 658.2 869.6 658.2 869.6"/>
          <polygon class="cls-4" points="571.9 898 567.8 898 567.8 874.6 571.9 874.6 571.9 898 571.9 898"/>
          <polygon class="cls-4" points="550.4 887.8 546.2 887.8 546.2 864.4 550.4 864.4 550.4 887.8 550.4 887.8"/>
          <polygon class="cls-4" points="528.8 869.6 524.6 869.6 524.6 846.2 528.8 846.2 528.8 869.6 528.8 869.6"/>
        </g>
        <path class="cls-4" d="M722.9,1496.6a3.4,3.4,0,1,0-3.4,3.3A3.4,3.4,0,0,0,722.9,1496.6Z" transform="translate(-192.8 -629)"/>
        <path class="cls-4" d="M744.4,1514.8a3.4,3.4,0,1,0-3.3,3.3A3.4,3.4,0,0,0,744.4,1514.8Z" transform="translate(-192.8 -629)"/>
        <path class="cls-4" d="M766,1524.9a3.4,3.4,0,1,0-6.7,0,3.4,3.4,0,0,0,6.7,0Z" transform="translate(-192.8 -629)"/>
        <path class="cls-4" d="M787.6,1533.4a3.4,3.4,0,1,0-3.4,3.4A3.4,3.4,0,0,0,787.6,1533.4Z" transform="translate(-192.8 -629)"/>
        <path class="cls-4" d="M809.1,1524.9a3.4,3.4,0,1,0-3.3,3.3A3.4,3.4,0,0,0,809.1,1524.9Z" transform="translate(-192.8 -629)"/>
        <path class="cls-4" d="M830.7,1514.8a3.4,3.4,0,1,0-3.3,3.3A3.4,3.4,0,0,0,830.7,1514.8Z" transform="translate(-192.8 -629)"/>
        <path class="cls-4" d="M852.3,1496.6a3.4,3.4,0,1,0-6.7,0,3.4,3.4,0,0,0,6.7,0Z" transform="translate(-192.8 -629)"/>
      </g>
      <g>
        <path class="cls-10" d="M1869.2,1829.7c.1-1.9.3-3.8.3-5.8a73.8,73.8,0,0,0-147.5,0,54.9,54.9,0,0,0,.3,5.8Z" transform="translate(-192.8 -629)"/>
        <path class="cls-4" d="M1872.8,1833.6H1718.7l-.3-3.5c-.2-2.1-.3-4.1-.3-6.2a77.7,77.7,0,0,1,155.3,0c0,2.1-.2,4.1-.3,6.1l-.3,3.6Zm-146.9-7.7h139.7v-2a69.9,69.9,0,0,0-139.7,0v2Z" transform="translate(-192.8 -629)"/>
      </g>
      <g>
        <path class="cls-11" d="M1922.5,1829.7c.1-1.6.2-3.3.2-5a64.2,64.2,0,1,0-128.3,0c0,1.7.1,3.4.2,5Z" transform="translate(-192.8 -629)"/>
        <path class="cls-4" d="M1926.1,1833.6h-135l-.3-3.5a48.9,48.9,0,0,1-.3-5.4,68.1,68.1,0,1,1,136.1,0c0,1.8-.1,3.6-.2,5.3l-.3,3.6Zm-127.8-7.7h120.5v-1.2a60.3,60.3,0,1,0-120.5,0v1.2Z" transform="translate(-192.8 -629)"/>
      </g>
      <rect class="cls-3" x="643" y="396.5" width="807.8" height="97.24"/>
      <path class="cls-9" d="M1545.1,1016.1a9.4,9.4,0,0,1-9.4,9.4H942.8a9.4,9.4,0,0,1-9.4-9.4V849.9a9.4,9.4,0,0,1,9.4-9.4h592.9a9.4,9.4,0,0,1,9.4,9.4Z" transform="translate(-192.8 -629)"/>
      <path class="cls-3" d="M865.6,1799.6a16.1,16.1,0,0,1,16-16.1h715.2a16.1,16.1,0,0,1,16.1,16.1v14.1a16.1,16.1,0,0,1-16.1,16H881.6a16,16,0,0,1-16-16Z" transform="translate(-192.8 -629)"/>
      <rect class="cls-5" x="683.9" y="661.4" width="725.2" height="493.08"/>
      <rect class="cls-12" x="1033.4" y="774.8" width="323.4" height="289.28"/>
      <rect class="cls-3" x="683.9" y="988.8" width="39.5" height="26.63"/>
      <rect class="cls-3" x="961.1" y="879.6" width="39.5" height="26.63"/>
      <rect class="cls-3" x="1361" y="892.8" width="48" height="26.63"/>
      <rect class="cls-3" x="722.2" y="822.5" width="39.5" height="26.63"/>
      <rect class="cls-3" x="1369.6" y="1127.9" width="39.5" height="26.63"/>
      <g>
        <polygon class="cls-13" points="1248.5 774.8 1094.4 774.8 1033.4 884.8 1033.4 939.6 1157.2 939.6 1248.5 774.8"/>
        <polygon class="cls-13" points="1356.8 847.4 1356.8 774.8 1315.4 774.8 1224.1 939.6 1305.7 939.6 1356.8 847.4"/>
        <polygon class="cls-13" points="1278.1 1064.1 1347.1 939.6 1296.6 939.6 1227.5 1064.1 1278.1 1064.1"/>
        <polygon class="cls-13" points="1114.1 939.6 1045.1 1064.1 1119.2 1064.1 1188.3 939.6 1114.1 939.6"/>
      </g>
      <path class="cls-4" d="M1643.5,1127.9H835.8a5.2,5.2,0,0,1-5.2-5.2v-97.2a5.2,5.2,0,0,1,5.2-5.2h807.7a5.2,5.2,0,0,1,5.2,5.2v97.2a5.2,5.2,0,0,1-5.2,5.2Zm-802.6-10.4h797.5v-86.8H840.9v86.8Z" transform="translate(-192.8 -629)"/>
      <g class="cls-7">
        <path class="cls-14" d="M876.7,1365.2a79.1,79.1,0,0,0,20.8,2.9,77.5,77.5,0,0,0,56.9-25,77.5,77.5,0,0,0,114,0,77.4,77.4,0,0,0,113.9,0,77.4,77.4,0,0,0,113.9,0,77.4,77.4,0,0,0,113.9,0,77.4,77.4,0,0,0,113.9,0,77.8,77.8,0,0,0,57,25,79.1,79.1,0,0,0,20.8-2.9v-74.8H876.7Z" transform="translate(-192.8 -629)"/>
      </g>
      <polygon class="cls-4" points="766.8 661.9 756.5 661 756.5 660.6 772.5 467.8 772.6 467.8 772.6 467.8 782.9 468.6 766.8 661.9 766.8 661.9"/>
      <path class="cls-15" d="M1011.4,1347.4a57,57,0,0,0,57-57h-114A57,57,0,0,0,1011.4,1347.4Z" transform="translate(-192.8 -629)"/>
      <polygon class="cls-6" points="777.7 468.2 761.6 661.4 875.6 661.4 891.6 468.2 777.7 468.2"/>
      <polygon class="cls-9" points="891.6 468.2 875.6 661.4 989.5 661.4 989.5 468.2 891.6 468.2"/>
      <path class="cls-16" d="M1125.3,1347.4a57,57,0,0,0,57-57H1068.4A57,57,0,0,0,1125.3,1347.4Z" transform="translate(-192.8 -629)"/>
      <rect class="cls-6" x="989.5" y="468.2" width="114" height="193.21"/>
      <path class="cls-15" d="M1239.2,1347.4a57,57,0,0,0,57-57H1182.3A57,57,0,0,0,1239.2,1347.4Z" transform="translate(-192.8 -629)"/>
      <path class="cls-16" d="M1353.2,1347.4a57,57,0,0,0,56.9-57H1296.2A57,57,0,0,0,1353.2,1347.4Z" transform="translate(-192.8 -629)"/>
      <polygon class="cls-9" points="1103.4 468.2 1103.4 661.4 1217.3 661.4 1201.3 468.2 1103.4 468.2"/>
      <polygon class="cls-6" points="1201.3 468.2 1217.3 661.4 1331.3 661.4 1315.2 468.2 1201.3 468.2"/>
      <path class="cls-15" d="M1467.1,1347.4a56.9,56.9,0,0,0,56.9-57H1410.1A57,57,0,0,0,1467.1,1347.4Z" transform="translate(-192.8 -629)"/>
      <polygon class="cls-9" points="1331.3 661.4 1445.2 661.4 1415.7 468.2 1414.4 468.2 1315.2 468.2 1331.3 661.4"/>
      <path class="cls-16" d="M1581,1347.4a57,57,0,0,0,57-57H1524A57,57,0,0,0,1581,1347.4Z" transform="translate(-192.8 -629)"/>
      <polygon class="cls-9" points="647.7 661.4 761.6 661.4 777.7 468.2 678.5 468.2 677.2 468.2 647.7 661.4"/>
      <path class="cls-16" d="M897.5,1347.4a57,57,0,0,0,56.9-57H840.5A57,57,0,0,0,897.5,1347.4Z" transform="translate(-192.8 -629)"/>
      <path class="cls-4" d="M1601.8,1788.7H876.7a5.2,5.2,0,0,1-5.2-5.2V1343.4h10.3v434.9h714.8V1343.4H1607v440.1a5.2,5.2,0,0,1-5.2,5.2Z" transform="translate(-192.8 -629)"/>
      <path class="cls-4" d="M1011.4,1352.6a62.2,62.2,0,0,1-62.1-62.2l16.1-193.6a5.1,5.1,0,0,1,5.1-4.8h113.9a5.3,5.3,0,0,1,5.2,5.6l-16.1,193.3c0,33.8-27.8,61.7-62.1,61.7Zm-36.1-250.2-15.7,188.5c0,28.1,23.2,51.3,51.8,51.3a51.9,51.9,0,0,0,51.8-51.8l15.6-188Z" transform="translate(-192.8 -629)"/>
      <path class="cls-4" d="M1125.3,1352.6a62.2,62.2,0,0,1-62.1-62.2l16.1-193.6a5.1,5.1,0,0,1,5.1-4.8h97.9a5.2,5.2,0,0,1,5.1,5.2v193.2a62.2,62.2,0,0,1-62.1,62.2Zm-36.1-250.2-15.7,188.5c0,28.1,23.3,51.3,51.8,51.3a51.8,51.8,0,0,0,51.8-51.8v-188Z" transform="translate(-192.8 -629)"/>
      <path class="cls-4" d="M1239.2,1352.6a62.2,62.2,0,0,1-62.1-62.2V1097.2a5.2,5.2,0,0,1,5.2-5.2h113.9a5.2,5.2,0,0,1,5.2,5.2v193.2a62.3,62.3,0,0,1-62.2,62.2Zm-51.8-250.2v188a51.8,51.8,0,1,0,103.6,0v-188Z" transform="translate(-192.8 -629)"/>
      <path class="cls-4" d="M1353.2,1352.6a62.3,62.3,0,0,1-62.2-62.2V1097.2a5.3,5.3,0,0,1,5.2-5.2H1394a5.2,5.2,0,0,1,5.2,4.8l16.1,193.2c0,34.7-27.9,62.6-62.1,62.6Zm-51.8-250.2v188a51.8,51.8,0,1,0,103.5,0l-15.6-188Z" transform="translate(-192.8 -629)"/>
      <path class="cls-4" d="M1467.1,1352.6a62.3,62.3,0,0,1-62.2-62.2l-16-192.8a5.2,5.2,0,0,1,1.3-3.9,5.6,5.6,0,0,1,3.8-1.7h114a5.1,5.1,0,0,1,5.1,4.8l16.1,193.2c0,34.7-27.9,62.6-62.1,62.6Zm-67.4-250.2,15.6,187.6a51.8,51.8,0,1,0,103.6.4l-15.7-188Z" transform="translate(-192.8 -629)"/>
      <path class="cls-4" d="M1581,1352.6a62.2,62.2,0,0,1-62.1-62.2l-16.1-192.8a5.3,5.3,0,0,1,5.2-5.6h100.5a5.2,5.2,0,0,1,5.1,4.4l29.5,193.3a62.3,62.3,0,0,1-62.1,62.9Zm-67.4-250.2,15.6,187.6a51.8,51.8,0,1,0,103.6.4l-28.7-188Z" transform="translate(-192.8 -629)"/>
      <path class="cls-4" d="M1638,1294.3h-75.5a3.9,3.9,0,1,1,0-7.7H1638a3.9,3.9,0,1,1,0,7.7Z" transform="translate(-192.8 -629)"/>
      <path class="cls-4" d="M1470,1294.3h-13.7a3.9,3.9,0,1,1,0-7.7H1470a3.9,3.9,0,1,1,0,7.7Z" transform="translate(-192.8 -629)"/>
      <path class="cls-4" d="M1541.8,1294.3h-47.2a3.9,3.9,0,1,1,0-7.7h47.2a3.9,3.9,0,1,1,0,7.7Z" transform="translate(-192.8 -629)"/>
      <path class="cls-4" d="M1438.2,1294.3H1331.9a3.9,3.9,0,1,1,0-7.7h106.3a3.9,3.9,0,1,1,0,7.7Z" transform="translate(-192.8 -629)"/>
      <path class="cls-4" d="M1296.2,1294.3h-68.3a3.9,3.9,0,1,1,0-7.7h68.3a3.9,3.9,0,1,1,0,7.7Z" transform="translate(-192.8 -629)"/>
      <path class="cls-13" d="M1526.8,1552.4a4.5,4.5,0,0,1-1.9-.5,3.8,3.8,0,0,1-1.5-5.3l21.8-39.4a3.9,3.9,0,0,1,6.8,3.8l-21.8,39.4a3.8,3.8,0,0,1-3.4,2Z" transform="translate(-192.8 -629)"/>
      <path class="cls-4" d="M1196.4,1294.3h-58.6a3.9,3.9,0,1,1,0-7.7h58.6a3.9,3.9,0,1,1,0,7.7Z" transform="translate(-192.8 -629)"/>
      <path class="cls-13" d="M1229.4,1680.7a3.1,3.1,0,0,1-1.8-.5,3.7,3.7,0,0,1-1.5-5.2l26.4-47.8a4,4,0,0,1,5.3-1.6,3.9,3.9,0,0,1,1.5,5.3l-26.5,47.8a3.8,3.8,0,0,1-3.4,2Z" transform="translate(-192.8 -629)"/>
      <path class="cls-13" d="M1374.6,1656.8a3.4,3.4,0,0,1-1.9-.5,3.9,3.9,0,0,1-1.5-5.2l26.5-47.8a3.8,3.8,0,0,1,5.3-1.5,3.7,3.7,0,0,1,1.5,5.2l-26.5,47.8a3.8,3.8,0,0,1-3.4,2Z" transform="translate(-192.8 -629)"/>
      <path class="cls-13" d="M1439.7,1625.9a4.1,4.1,0,0,1-1.9-.4,3.8,3.8,0,0,1-1.5-5.3l3.4-6.3a3.9,3.9,0,0,1,6.8,3.8l-3.4,6.2a3.9,3.9,0,0,1-3.4,2Z" transform="translate(-192.8 -629)"/>
      <path class="cls-13" d="M1450.1,1607.1a4.5,4.5,0,0,1-1.9-.5,4,4,0,0,1-1.5-5.3l16-28.9a3.9,3.9,0,0,1,6.8,3.8l-16,28.9a4,4,0,0,1-3.4,2Z" transform="translate(-192.8 -629)"/>
      <path class="cls-4" d="M1097.2,1294.3H840.5a3.9,3.9,0,1,1,0-7.7h256.7a3.9,3.9,0,1,1,0,7.7Z" transform="translate(-192.8 -629)"/>
      <path class="cls-4" d="M897.5,1352.6a62.3,62.3,0,0,1-62.2-62.2l29.6-194a5.1,5.1,0,0,1,5.1-4.4H970.5a5.6,5.6,0,0,1,3.8,1.7,4.8,4.8,0,0,1,1.3,3.9l-16,193.3c0,33.8-27.9,61.7-62.1,61.7Zm-23.1-250.2-28.8,188.8c.1,27.8,23.3,51,51.9,51a51.9,51.9,0,0,0,51.8-51.8l15.6-188Z" transform="translate(-192.8 -629)"/>
      <path class="cls-5" d="M1623.3,1067a16.1,16.1,0,0,0-16.1-16H871.3a16.1,16.1,0,0,0-16.1,16v14.1a16.1,16.1,0,0,0,16.1,16.1h735.9a16.2,16.2,0,0,0,16.1-16.1Z" transform="translate(-192.8 -629)"/>
      <path class="cls-4" d="M1607.2,1102.4H871.3a21.3,21.3,0,0,1-21.3-21.3V1067a21.3,21.3,0,0,1,21.3-21.2h735.9a21.2,21.2,0,0,1,21.2,21.2v14.1a21.2,21.2,0,0,1-21.2,21.3Zm-735.9-46.2a10.8,10.8,0,0,0-10.9,10.8v14.1a10.9,10.9,0,0,0,10.9,10.9h735.9a10.9,10.9,0,0,0,10.9-10.9V1067a10.8,10.8,0,0,0-10.9-10.8Z" transform="translate(-192.8 -629)"/>
      <path class="cls-4" d="M1596.8,1834.9H881.6a21.2,21.2,0,0,1-21.2-21.2v-14.1a21.3,21.3,0,0,1,21.2-21.3h715.2a21.4,21.4,0,0,1,21.3,21.3v14.1a21.3,21.3,0,0,1-21.3,21.2Zm-715.2-46.2a10.8,10.8,0,0,0-10.8,10.9v14.1a10.8,10.8,0,0,0,10.8,10.9h715.2a10.9,10.9,0,0,0,10.9-10.9v-14.1a10.9,10.9,0,0,0-10.9-10.9Z" transform="translate(-192.8 -629)"/>
      <path class="cls-17" d="M1452.1,1699.2a3.4,3.4,0,0,1-1.9-.5,4,4,0,0,1-1.5-5.3l44.1-79.5a3.8,3.8,0,0,1,5.3-1.5,3.9,3.9,0,0,1,1.5,5.3l-44.1,79.5a3.8,3.8,0,0,1-3.4,2Z" transform="translate(-192.8 -629)"/>
      <path class="cls-3" d="M1557.9,1709.3a15.4,15.4,0,0,0-15.4-15.3H1233.3a15.4,15.4,0,0,0-15.4,15.3v6.8a15.3,15.3,0,0,0,15.4,15.3h309.2a15.3,15.3,0,0,0,15.4-15.3Z" transform="translate(-192.8 -629)"/>
      <path class="cls-4" d="M1542.5,1736.6H1233.3a20.6,20.6,0,0,1-20.6-20.5v-6.8a20.6,20.6,0,0,1,20.6-20.5h309.2a20.5,20.5,0,0,1,20.5,20.5v6.8a20.5,20.5,0,0,1-20.5,20.5Zm-309.2-37.4a10.2,10.2,0,0,0-10.2,10.1v6.8a10.2,10.2,0,0,0,10.2,10.2h309.2a10.2,10.2,0,0,0,10.2-10.2v-6.8a10.2,10.2,0,0,0-10.2-10.1Z" transform="translate(-192.8 -629)"/>
      <rect class="cls-3" x="761.7" y="774.8" width="199.4" height="353.55"/>
      <path class="cls-4" d="M1159,1762.6H949.3V1398.7H1159v363.9Zm-199.4-10.4h189.1V1409H959.6v343.2Z" transform="translate(-192.8 -629)"/>
      <rect class="cls-18" x="750.2" y="1128.4" width="222.4" height="26.12"/>
      <path class="cls-4" d="M1170.5,1788.7H937.8v-36.5h232.7v36.5Zm-222.4-10.4h212.1v-15.7H948.1v15.7Z" transform="translate(-192.8 -629)"/>
      <g class="cls-7">
        <path class="cls-14" d="M1226.2,1443.6a56.7,56.7,0,0,0,81,.4,57,57,0,0,0,80.8,0,57,57,0,0,0,80.8,0,57,57,0,0,0,80.8,0v-40.2H1226.2Z" transform="translate(-192.8 -629)"/>
      </g>
      <g class="cls-7">
        <path class="cls-19" d="M933.4,1002.5v13.6a9.4,9.4,0,0,0,9.4,9.4h592.9a9.4,9.4,0,0,0,9.4-9.4v-13.6Z" transform="translate(-192.8 -629)"/>
      </g>
      <path class="cls-15" d="M1266.9,1444.2a40.3,40.3,0,0,0,40.3-40.4h-80.7A40.4,40.4,0,0,0,1266.9,1444.2Z" transform="translate(-192.8 -629)"/>
      <path class="cls-9" d="M1347.6,1444.2a40.4,40.4,0,0,0,40.4-40.4h-80.8A40.4,40.4,0,0,0,1347.6,1444.2Z" transform="translate(-192.8 -629)"/>
      <path class="cls-15" d="M1428.4,1444.2a40.4,40.4,0,0,0,40.4-40.4H1388A40.4,40.4,0,0,0,1428.4,1444.2Z" transform="translate(-192.8 -629)"/>
      <path class="cls-9" d="M1509.2,1444.2a40.4,40.4,0,0,0,40.4-40.4h-80.8A40.4,40.4,0,0,0,1509.2,1444.2Z" transform="translate(-192.8 -629)"/>
      <path class="cls-17" d="M1504.8,1604.1a3.4,3.4,0,0,1-1.9-.5,4,4,0,0,1-1.5-5.3l3.9-7a3.9,3.9,0,0,1,6.8,3.8l-3.9,7a3.8,3.8,0,0,1-3.4,2Z" transform="translate(-192.8 -629)"/>
      <path class="cls-4" d="M1554.8,1698.3H1221V1398.7h333.8v299.6Zm-323.5-10.4h313.1V1409H1231.3v278.9Z" transform="translate(-192.8 -629)"/>
      <path class="cls-17" d="M1277.9,1566a4.1,4.1,0,0,1-1.8-.5,3.9,3.9,0,0,1-1.6-5.3l19.7-35.5a4,4,0,0,1,5.3-1.5,3.8,3.8,0,0,1,1.5,5.3l-19.7,35.5a3.8,3.8,0,0,1-3.4,2Z" transform="translate(-192.8 -629)"/>
      <path class="cls-17" d="M1314.2,1658.6a4.1,4.1,0,0,1-1.8-.5,4,4,0,0,1-1.6-5.3l9.2-16.6a4,4,0,0,1,5.3-1.5,3.8,3.8,0,0,1,1.5,5.3l-9.2,16.6a4,4,0,0,1-3.4,2Z" transform="translate(-192.8 -629)"/>
      <path class="cls-17" d="M1332.5,1625.6a3.4,3.4,0,0,1-1.9-.5,3.9,3.9,0,0,1-1.5-5.3l26.1-47.1a3.9,3.9,0,0,1,6.8,3.8l-26.1,47.1a3.8,3.8,0,0,1-3.4,2Z" transform="translate(-192.8 -629)"/>
      <path class="cls-4" d="M1266.9,1448.1a44.3,44.3,0,0,1-44.3-44.3V1400h88.5v3.8a44.2,44.2,0,0,1-44.2,44.3Zm-36.4-40.4a36.6,36.6,0,0,0,72.7,0Z" transform="translate(-192.8 -629)"/>
      <path class="cls-4" d="M1347.6,1448.1a44.2,44.2,0,0,1-44.2-44.3V1400h88.5v3.8a44.3,44.3,0,0,1-44.3,44.3Zm-36.3-40.4a36.5,36.5,0,0,0,72.6,0Z" transform="translate(-192.8 -629)"/>
      <path class="cls-4" d="M1428.4,1448.1a44.3,44.3,0,0,1-44.3-44.3V1400h88.6v3.8a44.3,44.3,0,0,1-44.3,44.3Zm-36.3-40.4a36.5,36.5,0,0,0,72.6,0Z" transform="translate(-192.8 -629)"/>
      <path class="cls-4" d="M1509.2,1448.1a44.3,44.3,0,0,1-44.3-44.3V1400h88.6v3.8a44.3,44.3,0,0,1-44.3,44.3Zm-36.3-40.4a36.5,36.5,0,0,0,72.6,0Z" transform="translate(-192.8 -629)"/>
      <polygon class="cls-4" points="1356.8 945.3 1033.4 945.3 1033.4 933.9 1356.8 933.9 1356.8 945.3 1356.8 945.3"/>
      <g class="cls-7">
        <polygon class="cls-14" points="1356.8 957.7 1033.4 957.7 1033.4 945.3 1356.8 945.3 1356.8 957.7 1356.8 957.7"/>
      </g>
      <path class="cls-4" d="M1387.9,1698.3h0a5.2,5.2,0,0,1-5.2-5.2V1568.6a5.2,5.2,0,0,1,5.2-5.2h0a5.2,5.2,0,0,1,5.2,5.2v124.5a5.2,5.2,0,0,1-5.2,5.2Z" transform="translate(-192.8 -629)"/>
      <path class="cls-4" d="M1535.7,1030.7H942.8a14.7,14.7,0,0,1-14.6-14.6V849.9a14.6,14.6,0,0,1,14.6-14.6h592.9a14.6,14.6,0,0,1,14.6,14.6v166.2a14.7,14.7,0,0,1-14.6,14.6ZM942.8,845.6a4.2,4.2,0,0,0-4.2,4.3v166.2a4.2,4.2,0,0,0,4.2,4.2h592.9a4.2,4.2,0,0,0,4.2-4.2V849.9a4.2,4.2,0,0,0-4.2-4.3Z" transform="translate(-192.8 -629)"/>
      <path class="cls-17" d="M1239.9,1527.6a4.5,4.5,0,0,1-1.9-.5,4,4,0,0,1-1.5-5.3l5.5-10a4,4,0,0,1,5.3-1.5,3.8,3.8,0,0,1,1.5,5.3l-5.5,10a4,4,0,0,1-3.4,2Z" transform="translate(-192.8 -629)"/>
      <path class="cls-13" d="M1413.2,1551.5a4.1,4.1,0,0,1-1.9-.5,3.8,3.8,0,0,1-1.5-5.3l26.5-47.8a3.8,3.8,0,0,1,5.2-1.5,3.9,3.9,0,0,1,1.6,5.3l-26.5,47.8a4.1,4.1,0,0,1-3.4,2Z" transform="translate(-192.8 -629)"/>
      <path class="cls-13" d="M1447.8,1489a4.1,4.1,0,0,1-1.9-.5,3.8,3.8,0,0,1-1.5-5.3l7.9-14.3a4,4,0,0,1,5.3-1.5,3.8,3.8,0,0,1,1.5,5.3l-7.9,14.3a3.9,3.9,0,0,1-3.4,2Z" transform="translate(-192.8 -629)"/>
      <path class="cls-17" d="M1252.5,1504.9a3.2,3.2,0,0,1-1.9-.5,3.7,3.7,0,0,1-1.5-5.2l15.1-27.3a3.8,3.8,0,0,1,5.3-1.5,4,4,0,0,1,1.5,5.3l-15.1,27.2a3.9,3.9,0,0,1-3.4,2Z" transform="translate(-192.8 -629)"/>
      <path class="cls-17" d="M1495.7,1540.9a4.5,4.5,0,0,1-1.9-.5,3.9,3.9,0,0,1-1.5-5.3l27-48.7a3.8,3.8,0,0,1,5.3-1.5,3.9,3.9,0,0,1,1.5,5.2l-27,48.8a4,4,0,0,1-3.4,2Z" transform="translate(-192.8 -629)"/>
      <rect class="cls-12" x="787.9" y="796.3" width="146.9" height="145.75"/>
      <path class="cls-17" d="M1341.8,1540.9a4.1,4.1,0,0,1-1.9-.5,3.8,3.8,0,0,1-1.5-5.3l42.2-76.2a3.9,3.9,0,1,1,6.8,3.8l-42.2,76.2a4.1,4.1,0,0,1-3.4,2Z" transform="translate(-192.8 -629)"/>
      <rect class="cls-12" x="787.9" y="961.1" width="146.9" height="145.75"/>
      <polygon class="cls-13" points="787.9 1106.9 843.7 1106.9 924.5 961.1 837.5 961.1 787.9 1050.7 787.9 1106.9"/>
      <g>
        <polygon class="cls-13" points="819.1 796.3 787.9 796.3 787.9 852.5 819.1 796.3"/>
        <polygon class="cls-13" points="934.6 796.3 902.5 796.3 821.7 942.1 908.5 942.1 934.6 894.9 934.6 796.3"/>
      </g>
      <path class="cls-13" d="M1090.1,1704.2a3.4,3.4,0,0,1-1.9-.5,4,4,0,0,1-1.5-5.3l6.8-12.2a3.8,3.8,0,0,1,5.3-1.5,3.7,3.7,0,0,1,1.5,5.2l-6.8,12.3a3.8,3.8,0,0,1-3.4,2Z" transform="translate(-192.8 -629)"/>
      <path class="cls-13" d="M1103.2,1680.6a4.1,4.1,0,0,1-1.9-.4,3.8,3.8,0,0,1-1.5-5.3l18.9-34.1a3.8,3.8,0,0,1,5.2-1.5,4,4,0,0,1,1.6,5.3l-18.9,34a3.9,3.9,0,0,1-3.4,2Z" transform="translate(-192.8 -629)"/>
      <path class="cls-13" d="M980.7,1575a4.5,4.5,0,0,1-1.9-.5,4,4,0,0,1-1.5-5.3l49.7-89.5a3.7,3.7,0,0,1,5.2-1.5,3.8,3.8,0,0,1,1.6,5.2L984.1,1573a3.8,3.8,0,0,1-3.4,2Z" transform="translate(-192.8 -629)"/>
      <path class="cls-13" d="M1038,1471.6a4.3,4.3,0,0,1-1.9-.4,3.9,3.9,0,0,1-1.5-5.3l7.9-14.2a3.9,3.9,0,0,1,5.3-1.6,4,4,0,0,1,1.5,5.3l-7.9,14.2a3.8,3.8,0,0,1-3.4,2Z" transform="translate(-192.8 -629)"/>
      <path class="cls-17" d="M1095,1539.1a3.2,3.2,0,0,1-1.9-.5,3.7,3.7,0,0,1-1.5-5.2l27.6-49.9a3.9,3.9,0,0,1,5.3-1.5,4,4,0,0,1,1.5,5.3l-27.6,49.8a4,4,0,0,1-3.4,2Z" transform="translate(-192.8 -629)"/>
      <path class="cls-17" d="M1034.8,1569.5a3.9,3.9,0,0,1-1.8-.4,3.9,3.9,0,0,1-1.5-5.3l27.7-50.1a3.8,3.8,0,0,1,5.3-1.5,3.9,3.9,0,0,1,1.5,5.3l-27.8,50a3.8,3.8,0,0,1-3.4,2Z" transform="translate(-192.8 -629)"/>
      <path class="cls-13" d="M982.8,1628.1a3.2,3.2,0,0,1-1.9-.5,3.8,3.8,0,0,1-1.5-5.3l18.9-34a3.8,3.8,0,0,1,6.7,3.7l-18.8,34.1a4,4,0,0,1-3.4,2Z" transform="translate(-192.8 -629)"/>
      <path class="cls-4" d="M1132.8,1576.3H975.5V1420.2h157.3v156.1Zm-146.9-10.4h136.5V1430.5H985.9v135.4Z" transform="translate(-192.8 -629)"/>
      <path class="cls-17" d="M981.6,1739.8a3.7,3.7,0,0,1-1.8-.5,3.9,3.9,0,0,1-1.6-5.3l57.3-103.3a4,4,0,0,1,5.3-1.6,3.8,3.8,0,0,1,1.5,5.3L985,1737.8a3.8,3.8,0,0,1-3.4,2Z" transform="translate(-192.8 -629)"/>
      <path class="cls-17" d="M1071,1504.2a3.9,3.9,0,0,1-1.8-.4,4,4,0,0,1-1.6-5.3l8.3-15a3.9,3.9,0,0,1,5.3-1.5,3.8,3.8,0,0,1,1.5,5.3l-8.3,14.9a3.8,3.8,0,0,1-3.4,2Z" transform="translate(-192.8 -629)"/>
      <path class="cls-17" d="M1045.9,1623.8a4.1,4.1,0,0,1-1.9-.4,4,4,0,0,1-1.5-5.3l6-10.9a3.9,3.9,0,0,1,6.8,3.8l-6,10.8a3.8,3.8,0,0,1-3.4,2Z" transform="translate(-192.8 -629)"/>
      <path class="cls-4" d="M1132.8,1741.1H975.5V1585h157.3v156.1Zm-146.9-10.4h136.5V1595.3H985.9v135.4Z" transform="translate(-192.8 -629)"/>
      <path class="cls-17" d="M1591.5,1809.3H1523a5.2,5.2,0,1,1,0-10.3h68.5a5.2,5.2,0,0,1,0,10.3Z" transform="translate(-192.8 -629)"/>
      <g class="cls-7">
        <path class="cls-8" d="M1042,928.2l1.8.7,1.8.8,3.9,2a42.8,42.8,0,0,1,7.7,5.1q8.4,7.1,8.4,17.4c0,7.4-2.5,13.3-7.6,17.6s-11.9,6.5-20.6,6.5a39.2,39.2,0,0,1-18.1-4.3,39.8,39.8,0,0,1-5.6-3.4l-1.8-1.5a6.5,6.5,0,0,1-1.2-1.1c-.5-.3-.5-.7,0-1.1l6.9-6.5c.3-.4.7-.4,1.1,0l.9.8,1.3.9a25,25,0,0,0,3.9,2.3,29,29,0,0,0,12.6,2.8c11.5,0,17.2-4.3,17.2-13,0-3.4-1.5-6.3-4.4-8.8s-6.7-4.5-12.7-7.2h-.2l-2.8-1.4-1.5-.7-1.7-.7-3.5-1.8a37.4,37.4,0,0,1-6.9-4.5c-5.1-4.4-7.6-9.6-7.6-15.9s2.3-12,6.9-15.9,10.8-5.9,18.7-5.9a35.9,35.9,0,0,1,16.1,3.7,35.2,35.2,0,0,1,5,3.1l1.7,1.3,1.1,1q.8.6,0,1.2l-3.4,3.2-3.4,3.3a.9.9,0,0,1-1.1.1l-.8-.8-1.2-.8a16.3,16.3,0,0,0-3.4-1.9,24.2,24.2,0,0,0-10.6-2.4c-9.7,0-14.5,3.6-14.5,10.8a9.3,9.3,0,0,0,3.7,7.4c2,1.8,5.7,3.8,10.9,6.1h.2Z" transform="translate(-192.8 -629)"/>
        <path class="cls-8" d="M1157.9,891.4a.7.7,0,0,1,.8.8v9.4c0,.6-.3.8-.8.8h-22.8v75.1c0,.5-.2.8-.8.8h-9.4c-.6,0-.8-.3-.8-.8V902.4h-22.8c-.6,0-.8-.2-.8-.8v-9.4c0-.5.2-.8.8-.8Z" transform="translate(-192.8 -629)"/>
        <path class="cls-8" d="M1233.7,891.4a43.4,43.4,0,1,1-30.7,12.7A41.7,41.7,0,0,1,1233.7,891.4Zm0,75.8a31.5,31.5,0,0,0,22.9-9.5,32.4,32.4,0,1,0-22.9,9.5Z" transform="translate(-192.8 -629)"/>
        <path class="cls-8" d="M1378.4,977.1a.8.8,0,0,1-.1.8.7.7,0,0,1-.7.4h-10.8a.6.6,0,0,1-.6-.5l-20.4-37.1h-14.9v36.7a.7.7,0,0,1-.8.8h-9.5a.7.7,0,0,1-.8-.8V892.1a.7.7,0,0,1,.8-.8h31.9a24.8,24.8,0,0,1,24.7,25.4,24,24,0,0,1-5.7,14.9,25.4,25.4,0,0,1-13.6,8.3Zm-25.9-47.6a13.7,13.7,0,0,0,13.7-13.5,13.5,13.5,0,0,0-13.7-13.6h-21.6v27.1Z" transform="translate(-192.8 -629)"/>
        <path class="cls-8" d="M1476,891.4a.7.7,0,0,1,.8.8v9.4c0,.6-.3.8-.8.8h-46.2v26.9h33.4c.6,0,.8.3.8.8v9.5c0,.5-.2.7-.8.7h-33.4v26.9H1476a.7.7,0,0,1,.8.8v9.5a.7.7,0,0,1-.8.8h-56.5c-.5,0-.7-.3-.7-.8V892.2c0-.5.2-.8.7-.8Z" transform="translate(-192.8 -629)"/>
      </g>
      <path class="cls-17" d="M1504.4,1809.3h-12.8a5.2,5.2,0,0,1,0-10.3h12.8a5.2,5.2,0,1,1,0,10.3Z" transform="translate(-192.8 -629)"/>
      <g>
        <path class="cls-4" d="M1038.1,924.3l1.8.8,1.8.7,3.9,2a42.8,42.8,0,0,1,7.7,5.1q8.4,7.2,8.4,17.4c0,7.4-2.5,13.3-7.5,17.6s-12,6.5-20.7,6.5a39.2,39.2,0,0,1-18.1-4.3,38.7,38.7,0,0,1-5.5-3.4l-1.9-1.5a4.3,4.3,0,0,1-1.2-1.1c-.4-.3-.4-.7,0-1.1l6.9-6.5a.8.8,0,0,1,1.1,0l.9.8,1.3.9a22.3,22.3,0,0,0,4,2.4,29.6,29.6,0,0,0,12.5,2.7c11.5,0,17.2-4.3,17.2-13,0-3.4-1.5-6.3-4.4-8.8s-6.7-4.5-12.7-7.2h-.1l-2.9-1.4-1.5-.7-1.6-.7-3.6-1.8a37.4,37.4,0,0,1-6.9-4.5c-5-4.3-7.6-9.6-7.6-15.9s2.3-12,6.9-15.9,10.8-5.9,18.7-5.9a35.7,35.7,0,0,1,16.1,3.8,33,33,0,0,1,5.1,3.1l1.7,1.2,1,1.1c.5.3.5.7,0,1.1l-3.4,3.2-3.4,3.3c-.4.3-.7.4-1.1.1l-.8-.8-1.1-.8a29,29,0,0,0-3.4-1.9,24.9,24.9,0,0,0-10.7-2.4c-9.7,0-14.5,3.6-14.5,10.8a9.3,9.3,0,0,0,3.7,7.4c2,1.8,5.7,3.8,11,6.1h.1Z" transform="translate(-192.8 -629)"/>
        <path class="cls-4" d="M1154,887.5a.7.7,0,0,1,.8.8v9.5c0,.5-.3.7-.8.7h-22.8v75.1c0,.5-.2.8-.7.8H1121a.7.7,0,0,1-.8-.8V898.5h-22.8c-.5,0-.8-.2-.8-.7v-9.5a.7.7,0,0,1,.8-.8Z" transform="translate(-192.8 -629)"/>
        <path class="cls-4" d="M1229.8,887.5a43.4,43.4,0,1,1-30.7,12.7A42.1,42.1,0,0,1,1229.8,887.5Zm0,75.8a31.5,31.5,0,0,0,22.9-9.5,32.5,32.5,0,0,0,0-45.7,32.4,32.4,0,0,0-45.8,0,32.5,32.5,0,0,0,0,45.7A31.3,31.3,0,0,0,1229.8,963.3Z" transform="translate(-192.8 -629)"/>
        <path class="cls-4" d="M1374.5,973.2a.8.8,0,0,1-.1.8.5.5,0,0,1-.6.4H1363a.7.7,0,0,1-.7-.4l-20.4-37.2H1327v36.7a.7.7,0,0,1-.8.8h-9.5a.7.7,0,0,1-.8-.8V888.2a.7.7,0,0,1,.8-.8h31.9a24.6,24.6,0,0,1,19,40.3A25.1,25.1,0,0,1,1354,936Zm-25.9-47.5a13.5,13.5,0,0,0,9.7-4,13.6,13.6,0,0,0,0-19.3,13.4,13.4,0,0,0-9.7-3.9H1327v27.2Z" transform="translate(-192.8 -629)"/>
        <path class="cls-4" d="M1472.1,887.5a.7.7,0,0,1,.8.8v9.5c0,.5-.3.7-.8.7h-46.2v26.9h33.4c.6,0,.8.3.8.8v9.5c0,.5-.2.8-.8.8h-33.4v26.8h46.2a.7.7,0,0,1,.8.8v9.5a.7.7,0,0,1-.8.8h-56.4c-.6,0-.8-.3-.8-.8V888.3c0-.5.2-.8.8-.8Z" transform="translate(-192.8 -629)"/>
      </g>
      <rect class="cls-3" x="925.2" y="916.8" width="19.1" height="69.61"/>
      <path class="cls-4" d="M1142.3,1620.6h-29.5v-80h29.5v80Zm-19.1-10.4h8.8V1551h-8.8v59.2Z" transform="translate(-192.8 -629)"/>
      <g>
        <path class="cls-9" d="M1103.2,1496.8a10.1,10.1,0,0,1-10.1,10H1015a10.1,10.1,0,0,1-10.1-10v-19.5a10.1,10.1,0,0,1,10.1-10.1h78.1a10.1,10.1,0,0,1,10.1,10.1Z" transform="translate(-192.8 -629)"/>
        <g>
          <path class="cls-4" d="M1093.1,1509.4H1015a12.7,12.7,0,0,1-12.7-12.6v-19.5a12.6,12.6,0,0,1,12.7-12.6h78.1a12.6,12.6,0,0,1,12.7,12.6v19.5a12.7,12.7,0,0,1-12.7,12.6Zm-78.1-39.6a7.5,7.5,0,0,0-7.5,7.5v19.5a7.4,7.4,0,0,0,7.5,7.4h78.1a7.5,7.5,0,0,0,7.5-7.4v-19.5a7.6,7.6,0,0,0-7.5-7.5Z" transform="translate(-192.8 -629)"/>
          <path class="cls-4" d="M1071.3,1469.8a2.4,2.4,0,0,1-1.8-.7l-15.4-14.4-15.5,14.4a2.6,2.6,0,0,1-3.7-.1,2.7,2.7,0,0,1,.1-3.7l15.3-14.2a9.8,9.8,0,0,1-2.9-6.4,6.7,6.7,0,0,1,13.3,0,9.8,9.8,0,0,1-2.9,6.4l15.2,14.2a2.7,2.7,0,0,1,.2,3.7,2.4,2.4,0,0,1-1.9.8Zm-17.2-26.6a1.5,1.5,0,0,0-1.5,1.5,4.7,4.7,0,0,0,1.4,2.8,4.3,4.3,0,0,0,1.5-2.8,1.5,1.5,0,0,0-1.4-1.5Z" transform="translate(-192.8 -629)"/>
        </g>
      </g>
      <g>
        <rect class="cls-8" x="213.3" y="1200.7" width="1687.8" height="36.07"/>
        <polygon class="cls-4" points="1901.1 1205.9 213.3 1205.9 213.3 1195.6 1901.1 1195.6 1901.1 1205.9 1901.1 1205.9"/>
        <polygon class="cls-4" points="1062.4 1236.8 1052 1236.8 1052 1200.7 1062.4 1200.7 1062.4 1236.8 1062.4 1236.8"/>
        <polygon class="cls-4" points="866.5 1236.8 856.2 1236.8 856.2 1200.7 866.5 1200.7 866.5 1236.8 866.5 1236.8"/>
        <polygon class="cls-4" points="670.7 1236.8 660.3 1236.8 660.3 1200.7 670.7 1200.7 670.7 1236.8 670.7 1236.8"/>
        <polygon class="cls-4" points="474.8 1236.8 464.5 1236.8 464.5 1200.7 474.8 1200.7 474.8 1236.8 474.8 1236.8"/>
        <polygon class="cls-4" points="278.9 1236.8 268.6 1236.8 268.6 1200.7 278.9 1200.7 278.9 1236.8 278.9 1236.8"/>
        <polygon class="cls-4" points="1258.3 1236.8 1247.9 1236.8 1247.9 1200.7 1258.3 1200.7 1258.3 1236.8 1258.3 1236.8"/>
        <polygon class="cls-4" points="1454.1 1236.8 1443.8 1236.8 1443.8 1200.7 1454.1 1200.7 1454.1 1236.8 1454.1 1236.8"/>
        <polygon class="cls-4" points="1650 1236.8 1639.6 1236.8 1639.6 1200.7 1650 1200.7 1650 1236.8 1650 1236.8"/>
        <polygon class="cls-4" points="1845.9 1236.8 1835.5 1236.8 1835.5 1200.7 1845.9 1200.7 1845.9 1236.8 1845.9 1236.8"/>
      </g>
      <g>
        <g>
          <path class="cls-18" d="M655.3,1748.6a20.7,20.7,0,1,0-41.4,0l-3.6,5.4v75.7H659V1754Z" transform="translate(-192.8 -629)"/>
          <path class="cls-4" d="M659,1834.9H610.3a5.2,5.2,0,0,1-5.2-5.2V1754a5.2,5.2,0,0,1,.9-2.9l2.8-4.1a25.9,25.9,0,0,1,51.7,0l2.8,4.1a6,6,0,0,1,.8,2.9v75.7a5.1,5.1,0,0,1-5.1,5.2Zm-43.6-10.3h38.4v-69l-2.8-4.1a6,6,0,0,1-.8-2.9,15.6,15.6,0,1,0-31.1,0,5.2,5.2,0,0,1-.9,2.9l-2.8,4.1v69Z" transform="translate(-192.8 -629)"/>
        </g>
        <g>
          <polygon class="cls-20" points="469.2 620.8 414.5 620.8 407.1 559.2 476.6 559.2 469.2 620.8"/>
          <path class="cls-4" d="M662,1255H607.3a5.1,5.1,0,0,1-5.2-4.5l-7.4-61.7a4.9,4.9,0,0,1,1.3-4,5.3,5.3,0,0,1,3.8-1.8h69.6a5.3,5.3,0,0,1,3.9,1.8,5.2,5.2,0,0,1,1.2,4l-7.4,61.7a5.1,5.1,0,0,1-5.1,4.5Zm-50.2-10.3h45.6l6.1-51.3H605.7l6.1,51.3Z" transform="translate(-192.8 -629)"/>
        </g>
        <g>
          <path class="cls-18" d="M634.6,1154.6a33.5,33.5,0,0,0-33.6,33.6h67.2A33.5,33.5,0,0,0,634.6,1154.6Z" transform="translate(-192.8 -629)"/>
          <path class="cls-4" d="M668.2,1193.4H601a5.2,5.2,0,0,1-5.2-5.2,38.8,38.8,0,1,1,77.6,0,5.2,5.2,0,0,1-5.2,5.2ZM606.7,1183h55.9a28.4,28.4,0,0,0-55.9,0Z" transform="translate(-192.8 -629)"/>
        </g>
        <path class="cls-4" d="M676.7,1194.4H592.5a6.2,6.2,0,0,1,0-12.4h84.2a6.2,6.2,0,0,1,0,12.4Z" transform="translate(-192.8 -629)"/>
        <path class="cls-4" d="M642.9,1296.5H626.4a5.2,5.2,0,1,1,0-10.3h16.5a5.2,5.2,0,0,1,0,10.3Z" transform="translate(-192.8 -629)"/>
        <polygon class="cls-4" points="447 1104 436.6 1104 436.6 554 447 554 447 1104 447 1104"/>
        <polygon class="cls-4" points="447 530.8 436.6 530.8 436.6 505.8 447 505.8 447 530.8 447 530.8"/>
        <path class="cls-4" d="M643,1140a8.4,8.4,0,0,0-8.4-8.3,8.3,8.3,0,0,0-8.3,8.3,8.4,8.4,0,0,0,8.3,8.4A8.5,8.5,0,0,0,643,1140Z" transform="translate(-192.8 -629)"/>
      </g>
      <g>
        <g>
          <rect class="cls-11" x="1672" y="992" width="109.6" height="134.12" rx="50.2" ry="50.2"/>
          <path class="cls-4" d="M1924.3,1759.1H1915a54.2,54.2,0,0,1-54.1-54.1v-33.8a54.1,54.1,0,0,1,54.1-54h9.3a54,54,0,0,1,54,54V1705a54.1,54.1,0,0,1-54,54.1Zm-9.3-134.2a46.3,46.3,0,0,0-46.3,46.3V1705a46.3,46.3,0,0,0,46.3,46.3h9.3a46.4,46.4,0,0,0,46.3-46.3v-33.8a46.4,46.4,0,0,0-46.3-46.3Z" transform="translate(-192.8 -629)"/>
        </g>
        <path class="cls-4" d="M1919.6,1834.9a5.2,5.2,0,0,1-5.2-5.2V1681.2a5.2,5.2,0,0,1,10.4,0v148.5a5.2,5.2,0,0,1-5.2,5.2Z" transform="translate(-192.8 -629)"/>
        <path class="cls-4" d="M1919.6,1717.9a4,4,0,0,1-2.7-1.1l-23.1-22.2a3.8,3.8,0,0,1-.2-5.5,3.9,3.9,0,0,1,5.5-.1l23.2,22.2a3.9,3.9,0,0,1,.1,5.5,3.8,3.8,0,0,1-2.8,1.2Z" transform="translate(-192.8 -629)"/>
        <path class="cls-4" d="M1919.6,1731.9a3.9,3.9,0,0,1-2.7-6.7l20-19.1a3.9,3.9,0,1,1,5.3,5.7l-19.9,19a4,4,0,0,1-2.7,1.1Z" transform="translate(-192.8 -629)"/>
      </g>
      <polygon class="cls-21" points="1428.1 1174.6 1537.8 1174.6 1568.1 1019.1 1458.4 1019.1 1428.1 1174.6"/>
      <path class="cls-4" d="M1730.6,1808.8H1620.9a5.1,5.1,0,0,1-5.1-6.1l30.3-155.6a5.2,5.2,0,0,1,5.1-4.2h109.7a4.9,4.9,0,0,1,3.9,1.9,5.2,5.2,0,0,1,1.1,4.3l-30.2,155.5a5.1,5.1,0,0,1-5.1,4.2Zm-103.4-10.3h99.1l28.3-145.2h-99.1l-28.3,145.2Z" transform="translate(-192.8 -629)"/>
      <polygon class="cls-9" points="1598.3 1174.6 1488.6 1174.6 1458.4 1019.1 1568.1 1019.1 1598.3 1174.6"/>
      <path class="cls-4" d="M1791.1,1808.8H1681.4a5.1,5.1,0,0,1-5.1-4.2l-30.2-155.5a5.2,5.2,0,0,1,5.1-6.2h109.7a5.1,5.1,0,0,1,5,4.2l30.3,155.6a5.2,5.2,0,0,1-1.1,4.3,5.5,5.5,0,0,1-4,1.8Zm-105.4-10.3h99.1l-28.2-145.2h-99.1l28.2,145.2Z" transform="translate(-192.8 -629)"/>
      <polygon class="cls-4" points="1590.2 1200.7 1574.7 1200.7 1574.7 1174.6 1590.2 1174.6 1590.2 1200.7 1590.2 1200.7"/>
      <polygon class="cls-4" points="1512.2 1200.7 1496.7 1200.7 1496.7 1174.6 1512.2 1174.6 1512.2 1200.7 1512.2 1200.7"/>
      <polygon class="cls-4" points="1451.8 1200.7 1436.2 1200.7 1436.2 1174.6 1451.8 1174.6 1451.8 1200.7 1451.8 1200.7"/>
      <path class="cls-6" d="M1738.9,1683.2h-49a3.9,3.9,0,0,1-3.9-3.9,3.8,3.8,0,0,1,3.9-3.9h49a3.9,3.9,0,0,1,3.9,3.9,4,4,0,0,1-3.9,3.9Z" transform="translate(-192.8 -629)"/>
      <path class="cls-6" d="M1745.1,1714.2h-49a3.9,3.9,0,1,1,0-7.7h49a3.9,3.9,0,0,1,0,7.7Z" transform="translate(-192.8 -629)"/>
      <path class="cls-6" d="M1750.9,1745.3H1702a3.8,3.8,0,0,1-3.9-3.9,3.9,3.9,0,0,1,3.9-3.9h48.9a3.9,3.9,0,0,1,3.9,3.9,3.8,3.8,0,0,1-3.9,3.9Z" transform="translate(-192.8 -629)"/>
      <path class="cls-6" d="M1757,1776.4h-49a4,4,0,0,1-3.9-3.9,3.9,3.9,0,0,1,3.9-3.9h49a3.9,3.9,0,0,1,3.9,3.9,4,4,0,0,1-3.9,3.9Z" transform="translate(-192.8 -629)"/>
      <g>
        <g>
          <path class="cls-3" d="M447.5,1656.8H573.1a5,5,0,0,1,5.1,5,5.1,5.1,0,0,1-5.1,5.1H496c-1.1,1.6-2.5,4.3-.8,6.8l15.4,22.6-8.3,5.7-24-35.1H447.5a5,5,0,0,1-5-5.1A5,5,0,0,1,447.5,1656.8Z" transform="translate(-192.8 -629)"/>
          <path class="cls-4" d="M501.6,1705.6l-24.7-36.1H447.5a7.7,7.7,0,0,1,0-15.3H573.1a7.7,7.7,0,1,1,0,15.3H497.5a2.6,2.6,0,0,0-.1,2.8l16.8,24.7-12.6,8.6Zm-54.1-46.2a2.5,2.5,0,1,0,0,4.9h32.2l23.3,34.1,4-2.8-13.9-20.4c-1.9-2.9-1.6-6.4.8-9.8l.8-1.1h78.4a2.5,2.5,0,1,0,0-4.9Z" transform="translate(-192.8 -629)"/>
        </g>
        <g>
          <g>
            <path class="cls-22" d="M609.6,1774.3a55.5,55.5,0,1,0-55.5,55.4A55.4,55.4,0,0,0,609.6,1774.3Z" transform="translate(-192.8 -629)"/>
            <path class="cls-5" d="M600.2,1774.3a46.1,46.1,0,1,0-46.1,46A46,46,0,0,0,600.2,1774.3Z" transform="translate(-192.8 -629)"/>
            <path class="cls-18" d="M586.3,1774.3a32.2,32.2,0,1,0-32.2,32.1A32.2,32.2,0,0,0,586.3,1774.3Z" transform="translate(-192.8 -629)"/>
            <path class="cls-23" d="M568.6,1774.3a14.5,14.5,0,1,0-14.5,14.4A14.5,14.5,0,0,0,568.6,1774.3Z" transform="translate(-192.8 -629)"/>
            <g class="cls-7">
              <path class="cls-24" d="M498.6,1774.3a55.5,55.5,0,1,1,109.3,13H500.3A55.8,55.8,0,0,1,498.6,1774.3Z" transform="translate(-192.8 -629)"/>
            </g>
            <path class="cls-4" d="M554.1,1834.9a60.7,60.7,0,1,1,60.7-60.6,60.7,60.7,0,0,1-60.7,60.6Zm0-110.9a50.3,50.3,0,1,0,50.3,50.3,50.3,50.3,0,0,0-50.3-50.3Z" transform="translate(-192.8 -629)"/>
            <path class="cls-4" d="M554.1,1809a34.8,34.8,0,1,1,34.8-34.7,34.8,34.8,0,0,1-34.8,34.7Zm0-64.3a29.6,29.6,0,1,0,29.6,29.6,29.7,29.7,0,0,0-29.6-29.6Z" transform="translate(-192.8 -629)"/>
            <path class="cls-4" d="M554.1,1792.6a18.4,18.4,0,1,1,18.3-18.3,18.3,18.3,0,0,1-18.3,18.3Zm0-28.9a10.6,10.6,0,1,0,10.6,10.6,10.5,10.5,0,0,0-10.6-10.6Z" transform="translate(-192.8 -629)"/>
          </g>
          <g>
            <path class="cls-22" d="M881,1774.3a55.5,55.5,0,1,0-55.4,55.4A55.4,55.4,0,0,0,881,1774.3Z" transform="translate(-192.8 -629)"/>
            <path class="cls-5" d="M871.6,1774.3a46.1,46.1,0,1,0-46,46A46,46,0,0,0,871.6,1774.3Z" transform="translate(-192.8 -629)"/>
            <path class="cls-18" d="M857.8,1774.3a32.2,32.2,0,1,0-32.2,32.1A32.2,32.2,0,0,0,857.8,1774.3Z" transform="translate(-192.8 -629)"/>
            <g class="cls-7">
              <path class="cls-24" d="M825.6,1718.8a55.3,55.3,0,0,1,51.6,35.6c-7.8.9-19.3.9-36.1.9H810.5a44.6,44.6,0,0,0-3.2,3.9c-6.2,7.7-16.5,20.7-35.8,20.7h-.8a53.2,53.2,0,0,1-.6-5.6A55.4,55.4,0,0,1,825.6,1718.8Z" transform="translate(-192.8 -629)"/>
            </g>
            <g>
              <path class="cls-23" d="M840,1774.3a14.5,14.5,0,1,0-14.4,14.4A14.5,14.5,0,0,0,840,1774.3Z" transform="translate(-192.8 -629)"/>
              <path class="cls-4" d="M825.6,1792.6a18.4,18.4,0,1,1,18.3-18.3,18.3,18.3,0,0,1-18.3,18.3Zm0-28.9a10.6,10.6,0,1,0,0,21.1,10.6,10.6,0,0,0,0-21.1Z" transform="translate(-192.8 -629)"/>
            </g>
            <path class="cls-4" d="M825.6,1809a34.8,34.8,0,1,1,34.7-34.7,34.8,34.8,0,0,1-34.7,34.7Zm0-64.3a29.6,29.6,0,1,0,29.6,29.6,29.7,29.7,0,0,0-29.6-29.6Z" transform="translate(-192.8 -629)"/>
            <path class="cls-4" d="M825.6,1834.9a60.7,60.7,0,1,1,60.6-60.6,60.7,60.7,0,0,1-60.6,60.6Zm0-110.9a50.3,50.3,0,1,0,50.3,50.3,50.3,50.3,0,0,0-50.3-50.3Z" transform="translate(-192.8 -629)"/>
          </g>
          <path class="cls-25" d="M778,1542.6v50.3H764.6a17.7,17.7,0,0,1-8.4-2.2l2.6,5.7-16.7,11.7-15-26.9v-17.1c0-4.5,19.7-17.5,25.4-18.8S763.8,1542.6,778,1542.6Z" transform="translate(-192.8 -629)"/>
          <g>
            <path class="cls-20" d="M710.5,1774.3h0c8.3,0-5.6,0,0-.1Z" transform="translate(-192.8 -629)"/>
            <path class="cls-20" d="M573.1,1661.8H687.3c0,15.6-41.3,34.1-41.3,51.1s12.3,38.4,32.2,38.4h63.9c-14.5,22.9-31.6,23-31.6,23H468.9S499.5,1661.8,573.1,1661.8Z" transform="translate(-192.8 -629)"/>
            <g class="cls-7">
              <path class="cls-19" d="M687.3,1661.8c0,3.9-2.6,7.9-6.4,12H575c-31.1,0-58.2,22.5-74.8,45.7.5-6,3.1-13.9,7.6-22.1,16.2-19.8,37.7-35.6,65.3-35.6Z" transform="translate(-192.8 -629)"/>
            </g>
          </g>
          <path class="cls-20" d="M710.5,1774.3h0c8.3,0-5.6,0,0-.1Z" transform="translate(-192.8 -629)"/>
          <g>
            <path class="cls-20" d="M678,1774.2h0c10.6,0-7.2,0,0-.1Z" transform="translate(-192.8 -629)"/>
            <g class="cls-7">
              <path class="cls-19" d="M721.6,1751.3h20.5c-14.5,22.9-31.6,23-31.6,23H683.4C690.8,1771.5,711.7,1765.3,721.6,1751.3Z" transform="translate(-192.8 -629)"/>
            </g>
          </g>
          <g>
            <path class="cls-4" d="M710.5,1779.4h-1c-4.8-.4-5.5-3.4-5.5-5.2s.7-4.7,5.4-5.1h6.3v.8a4.8,4.8,0,0,1,2,2l1.5,2.6-1.5,2.6a4,4,0,0,1-2,1.9v.6h-5.2Z" transform="translate(-192.8 -629)"/>
            <path class="cls-4" d="M710.5,1779.4H468.9a5.1,5.1,0,0,1-4.1-2,5.2,5.2,0,0,1-.9-4.5c1.3-4.7,32.6-116.2,109.2-116.2H687.3a5.2,5.2,0,0,1,5.2,5.1c0,10-10.6,18.9-21.8,28.4-8.7,7.3-19.6,16.4-19.6,22.7,0,13.6,9.7,33.2,27.1,33.2h63.9a5.3,5.3,0,0,1,4.5,2.7,5.3,5.3,0,0,1-.2,5.3c-15.7,25-35.1,25.3-35.9,25.3ZM476,1769.1H710.5c.7,0,10.7-.6,21.3-12.6H678.2c-22,0-37.4-23-37.4-43.6,0-11.1,11.8-21.1,23.2-30.7,5.7-4.8,12.5-10.5,15.9-15.2H573.1c-58.8,0-89.3,78.6-97.1,102.1Z" transform="translate(-192.8 -629)"/>
          </g>
          <path class="cls-25" d="M590.2,1680.7c-76.5,0-108,56.2-121.3,93.6H628.7S669.8,1680.7,590.2,1680.7Z" transform="translate(-192.8 -629)"/>
          <g class="cls-7">
            <path class="cls-19" d="M569.8,1764.6c-74.5,0-74.6,0-74.6-11.4,0-16.6,30.2-55,30.3-55.2-31.5,19.6-47.9,51.9-56.6,76.3H628.7s1.6-3.8,3.6-9.7Z" transform="translate(-192.8 -629)"/>
          </g>
          <path class="cls-4" d="M628.7,1778.1H468.9a3.8,3.8,0,0,1-3.1-1.6,3.7,3.7,0,0,1-.5-3.5c15.6-43.9,50-96.2,124.9-96.2,21.5,0,36.8,6.6,45.3,19.7,18.7,28.6-2.3,77.3-3.2,79.3a4.1,4.1,0,0,1-3.6,2.3Zm-154.2-7.7H626.1c3.8-9.8,17.2-47.8,2.9-69.7-7-10.7-20.1-16.1-38.8-16.1-67.5,0-100.1,45.5-115.7,85.8Z" transform="translate(-192.8 -629)"/>
          <g>
            <path class="cls-26" d="M482,1739.8c5.9-12.8,14-27.5,24.5-40.6H485.8l-18.9,40.8H482Z" transform="translate(-192.8 -629)"/>
            <path class="cls-4" d="M482,1743.7H466.9a3.9,3.9,0,0,1-3.3-1.7,4,4,0,0,1-.2-3.8l18.8-40.7a4.1,4.1,0,0,1,3.6-2.3h20.7a4,4,0,0,1,3,6.4c-8.9,11.1-16.9,24.6-24,39.9a3.9,3.9,0,0,1-3.5,2.2Zm-9-7.7h6.5a212,212,0,0,1,19.2-33H488.2L473,1736Z" transform="translate(-192.8 -629)"/>
          </g>
          <path class="cls-27" d="M589.9,1755.5H525.5a4,4,0,0,1-3.9-3.9,3.9,3.9,0,0,1,3.9-3.9h64.4a3.9,3.9,0,0,1,3.9,3.9,4,4,0,0,1-3.9,3.9Z" transform="translate(-192.8 -629)"/>
          <path class="cls-27" d="M589.9,1740H529.1a3.9,3.9,0,1,1,0-7.7h60.8a3.9,3.9,0,1,1,0,7.7Z" transform="translate(-192.8 -629)"/>
          <path class="cls-27" d="M589.9,1724.6H538.7a3.9,3.9,0,0,1,0-7.8h51.2a3.9,3.9,0,0,1,0,7.8Z" transform="translate(-192.8 -629)"/>
          <path class="cls-20" d="M798.9,1698l16.5-6.1-55.7-92.5s-11.3,5.9-16.7,15.4c-2.5,4.6.9,12.2.9,12.2l24,45.7c2.6,5.6,3.2,11.6-.2,17.9,0,0-16.9,46.8-25.6,60.7-14.5,22.9-31.6,23-31.6,23,41.4,0,45.3,0,50.5-11.1l19.3-41.4C788.2,1704.5,790.2,1701.2,798.9,1698Z" transform="translate(-192.8 -629)"/>
          <g>
            <g class="cls-7">
              <path class="cls-19" d="M748.2,1637.8l-6.6-12.6s-3.4-7.5-.9-12.1c5.4-9.5,16.7-15.4,16.7-15.4l5.5,9.2C756.1,1613,749.3,1622.9,748.2,1637.8Z" transform="translate(-192.8 -629)"/>
            </g>
            <g class="cls-7">
              <path class="cls-19" d="M798.9,1698c-6.7,2.5-16.9,10.9-16.9,10.9s6.8-12.3,11.4-19-7.2-40.8-7.2-40.8l1-4,28.2,46.8Z" transform="translate(-192.8 -629)"/>
            </g>
          </g>
          <path class="cls-4" d="M710.5,1779.4h0a5.2,5.2,0,0,1-5.2-5.1,5.1,5.1,0,0,1,5.1-5.2c.8,0,14.8-.7,27.3-20.5,8.3-13.3,25-59.3,25.1-59.7,2.6-5,2.6-9.2.4-14l-23.9-45.5c-.9-2-4.4-10.6-.8-17.1,6.1-10.7,18.3-17.2,18.8-17.5a5.3,5.3,0,0,1,6.9,2l55.6,92.4a5.2,5.2,0,0,1,.5,4.4,5,5,0,0,1-3.1,3.1l-16.5,6.2c-6.5,2.4-7.8,3.7-15.7,21l-19.3,41.5c-6.7,14-13.1,14-55.2,14ZM758,1606.6c-3.3,2.3-7.8,6.1-10.5,10.8-.7,1.4.2,5.3,1.1,7.4l23.9,45.5c3.7,8,3.6,15.6-.2,22.8-.4,1.2-16.9,46.7-25.9,61a63.8,63.8,0,0,1-12.5,14.8c18.9-.4,19.7-2.1,22.4-7.9l19.3-41.4c7.9-17.3,10.6-22.4,21.5-26.5l10.6-3.9L758,1606.6Z" transform="translate(-192.8 -629)"/>
          <path class="cls-25" d="M815.4,1691.9l-16.5,6.1c-8.7,3.2-10.7,6.5-18.6,23.8L761,1763.2c31.4,9,36.8-23.1,47.2-23.1h32.9c40.6,0,40.6,0,40.6-4.7C881.7,1706.7,815.4,1691.9,815.4,1691.9Z" transform="translate(-192.8 -629)"/>
          <g class="cls-7">
            <path class="cls-19" d="M828.8,1697.7l-22,9.5c-8.7,3.3-17,20.8-24.9,38.1l-8.2,17.5a59.2,59.2,0,0,1-13.2-1.6l19.2-41.4c8-17.3,10-20.6,18.7-23.8l16.4-6.1Z" transform="translate(-192.8 -629)"/>
          </g>
          <path class="cls-4" d="M771.5,1770a43,43,0,0,1-11.9-1.8l-5.8-1.7,21.8-46.9c7.9-17.3,10.6-22.4,21.5-26.5l17.9-6.6,1.5.3c7.2,1.6,70.4,16.6,70.4,48.6,0,9.9-.9,9.9-45.8,9.9H808.2c-1.2.2-4.2,4.1-6.1,6.4-5.7,7.3-14.5,18.3-30.6,18.3Zm-3-10.6c12.8,1.5,19.7-6.8,25.5-14.1,4.2-5.3,8.2-10.3,14.2-10.3h32.9c19.1,0,30.9,0,35.3-.6-2.4-19.3-43.9-33.1-60.7-37.1l-15,5.6c-6.5,2.4-7.8,3.7-15.7,21l-16.5,35.5Z" transform="translate(-192.8 -629)"/>
          <g>
            <path class="cls-28" d="M687.3,1661.8c22.4,0,10-18.5-7.6-22.2-30.9-6.5-82.4-8.7-98.2-11.1s-56,33.3-8.4,33.3Z" transform="translate(-192.8 -629)"/>
            <path class="cls-4" d="M687.3,1667H573.1c-8.7,0-15.2-1.1-19.8-3.4-6.9-3.5-7.9-8.8-7.9-11.7,0-13.9,23.9-30.5,36.9-28.5,5.3.8,15.4,1.6,27,2.6,22.8,1.9,51.1,4.2,71.5,8.5,13.5,2.9,24.6,13.2,23.7,22.1-.3,3.1-2.6,10.4-17.2,10.4Zm-106.7-33.4c-9.2,0-24.8,11.9-24.8,18.3,0,.4,0,1.3,2.1,2.4s6.5,2.4,15.2,2.4H687.3c5.7,0,7-1.4,7-1.4.1-1.7-5.8-8.6-15.7-10.7-19.7-4.1-48.9-6.5-70.1-8.3-12.3-1-22.1-1.8-27.8-2.7Z" transform="translate(-192.8 -629)"/>
          </g>
          <g>
            <path class="cls-29" d="M777.6,1541.4V1594c7.7,0,13.9-11.8,13.9-26.3S785.3,1541.4,777.6,1541.4Z" transform="translate(-192.8 -629)"/>
            <path class="cls-4" d="M777.6,1597.1a3.1,3.1,0,0,1-3.1-3.1v-52.6a3.1,3.1,0,0,1,3.1-3.1c9.5,0,17,12.9,17,29.4s-7.5,29.4-17,29.4Zm3.1-51.5v44.2c4-2.9,7.7-11.2,7.7-22.1s-3.7-19.2-7.7-22.1Z" transform="translate(-192.8 -629)"/>
          </g>
          <path class="cls-4" d="M742.1,1612h-.9a4.1,4.1,0,0,1-2.5-1.9l-15-26.9a3.8,3.8,0,0,1-.5-1.9v-17.1c0-8,23.5-21.5,28.5-22.6s11.9-2.8,26.3-2.8v7.7c-13.5,0-18.7,1.3-24.3,2.6s-21.4,12.4-22.8,15.7v15.5l12.4,22.2,10.6-7.4-1.2-2.8a3.9,3.9,0,0,1,1-4.5,3.8,3.8,0,0,1,4.6-.3,14.1,14.1,0,0,0,6.3,1.6H778v7.8H762.6a3.9,3.9,0,0,1-1.6,2.8l-16.7,11.8a4.7,4.7,0,0,1-2.2.7Z" transform="translate(-192.8 -629)"/>
          <path class="cls-4" d="M764.6,1595.5h-.9a2.7,2.7,0,0,1-1.5-3.4c0-.1,3.7-10.5,3.7-20.2v-29c0-2.8,5.1-2.8,5.1,0v29c0,10.6-3.8,21.5-4,22a2.5,2.5,0,0,1-2.4,1.7Z" transform="translate(-192.8 -629)"/>
          <g>
            <path class="cls-30" d="M743.7,1580.5a9.9,9.9,0,1,1-9.9-9.9A9.9,9.9,0,0,1,743.7,1580.5Z" transform="translate(-192.8 -629)"/>
            <path class="cls-4" d="M733.8,1593a12.5,12.5,0,1,1,12.5-12.5,12.5,12.5,0,0,1-12.5,12.5Zm0-19.8a7.3,7.3,0,1,0,7.3,7.3,7.3,7.3,0,0,0-7.3-7.3Z" transform="translate(-192.8 -629)"/>
          </g>
          <path class="cls-4" d="M713.9,1598.2a8.1,8.1,0,0,1,.9-11.5l10.7-9.3a8.3,8.3,0,0,1,11.6.9h0a8.2,8.2,0,0,1-.8,11.6l-10.8,9.2A8.2,8.2,0,0,1,713.9,1598.2Z" transform="translate(-192.8 -629)"/>
        </g>
        <g>
          <path class="cls-31" d="M553.8,1645.3a7.6,7.6,0,0,1-7.6,7.6H438.4a7.6,7.6,0,0,1-7.6-7.6V1537.5a7.6,7.6,0,0,1,7.6-7.6H546.2a7.6,7.6,0,0,1,7.6,7.6Z" transform="translate(-192.8 -629)"/>
          <polygon class="cls-32" points="282.1 900.9 316.9 900.9 316.9 948.4 299.5 941.3 282.1 948.4 282.1 900.9"/>
          <path class="cls-4" d="M546.2,1656.8H438.4a11.6,11.6,0,0,1-11.5-11.5V1537.5a11.6,11.6,0,0,1,11.5-11.5H546.2a11.6,11.6,0,0,1,11.5,11.5v107.8a11.6,11.6,0,0,1-11.5,11.5Zm-107.8-123a3.7,3.7,0,0,0-3.7,3.7v107.8a3.6,3.6,0,0,0,3.7,3.7H546.2a3.7,3.7,0,0,0,3.7-3.7V1537.5a3.8,3.8,0,0,0-3.7-3.7Z" transform="translate(-192.8 -629)"/>
          <rect class="cls-32" x="303.5" y="988.7" width="39.8" height="6.24"/>
          <rect class="cls-32" x="310.7" y="1000" width="32.7" height="6.25"/>
        </g>
      </g>
      <g>
        <g>
          <path class="cls-18" d="M1864.6,1748.6a20.8,20.8,0,0,0-41.5,0l-3.6,5.4v75.7h48.7V1754Z" transform="translate(-192.8 -629)"/>
          <path class="cls-4" d="M1868.2,1834.9h-48.7a5.2,5.2,0,0,1-5.2-5.2V1754a5.2,5.2,0,0,1,.9-2.9l2.8-4.1a25.9,25.9,0,0,1,51.7,0l2.8,4.1a5.2,5.2,0,0,1,.9,2.9v75.7a5.2,5.2,0,0,1-5.2,5.2Zm-43.5-10.3H1863v-69l-2.7-4.1a5.2,5.2,0,0,1-.9-2.9,15.6,15.6,0,1,0-31.1,0,6,6,0,0,1-.8,2.9l-2.8,4.1v69Z" transform="translate(-192.8 -629)"/>
        </g>
        <g>
          <polygon class="cls-20" points="1678.5 620.8 1623.7 620.8 1616.3 559.2 1685.9 559.2 1678.5 620.8"/>
          <path class="cls-4" d="M1871.2,1255h-54.7a5.1,5.1,0,0,1-5.1-4.5l-7.4-61.7a5.2,5.2,0,0,1,1.2-4,5.3,5.3,0,0,1,3.9-1.8h69.5a5.3,5.3,0,0,1,3.9,1.8,4.9,4.9,0,0,1,1.3,4l-7.4,61.7a5.1,5.1,0,0,1-5.2,4.5Zm-50.1-10.3h45.5l6.2-51.3h-57.9l6.2,51.3Z" transform="translate(-192.8 -629)"/>
        </g>
        <g>
          <path class="cls-18" d="M1843.9,1154.6a33.5,33.5,0,0,0-33.6,33.6h67.2A33.6,33.6,0,0,0,1843.9,1154.6Z" transform="translate(-192.8 -629)"/>
          <path class="cls-4" d="M1877.5,1193.4h-67.2a5.2,5.2,0,0,1-5.2-5.2,38.8,38.8,0,1,1,77.6,0,5.2,5.2,0,0,1-5.2,5.2Zm-61.6-10.4h55.9a28.4,28.4,0,0,0-55.9,0Z" transform="translate(-192.8 -629)"/>
        </g>
        <path class="cls-4" d="M1886,1194.4h-84.3a6.2,6.2,0,0,1,0-12.4H1886a6.2,6.2,0,0,1,0,12.4Z" transform="translate(-192.8 -629)"/>
        <path class="cls-4" d="M1852.1,1296.5h-16.5a5.2,5.2,0,1,1,0-10.3h16.5a5.2,5.2,0,1,1,0,10.3Z" transform="translate(-192.8 -629)"/>
        <polygon class="cls-4" points="1656.3 1104 1645.9 1104 1645.9 554 1656.3 554 1656.3 1104 1656.3 1104"/>
        <polygon class="cls-4" points="1656.3 530.8 1645.9 530.8 1645.9 505.8 1656.3 505.8 1656.3 530.8 1656.3 530.8"/>
        <path class="cls-4" d="M1852.2,1140a8.3,8.3,0,0,0-8.3-8.3,8.4,8.4,0,0,0-8.4,8.3,8.5,8.5,0,0,0,8.4,8.4A8.4,8.4,0,0,0,1852.2,1140Z" transform="translate(-192.8 -629)"/>
      </g>
      <g>
        <path class="cls-10" d="M2014.2,1829.7a34,34,0,0,0,.3-4.5,57.8,57.8,0,0,0-115.6,0c0,1.5.1,3,.2,4.5Z" transform="translate(-192.8 -629)"/>
        <path class="cls-4" d="M2017.8,1833.6H1895.6l-.3-3.5a40.3,40.3,0,0,1-.3-4.9,61.7,61.7,0,0,1,123.4,0c0,1.6-.2,3.3-.3,4.9l-.3,3.5Zm-115-7.7h107.8v-.7a53.9,53.9,0,1,0-107.8,0v.7Z" transform="translate(-192.8 -629)"/>
      </g>
      <g>
        <g>
          <path class="cls-33" d="M2046.2,1748.4a42.7,42.7,0,0,1-42.8,42.8h-7.9a42.7,42.7,0,0,1-42.8-42.8v-28.9a42.8,42.8,0,0,1,42.8-42.8h7.9a42.8,42.8,0,0,1,42.8,42.8Z" transform="translate(-192.8 -629)"/>
          <path class="cls-4" d="M2003.4,1795.1h-7.9a46.7,46.7,0,0,1-46.7-46.7v-28.9a46.8,46.8,0,0,1,46.7-46.7h7.9a46.8,46.8,0,0,1,46.7,46.7v28.9a46.7,46.7,0,0,1-46.7,46.7Zm-7.9-114.5a39,39,0,0,0-39,38.9v28.9a39,39,0,0,0,39,38.9h7.9a39,39,0,0,0,39-38.9v-28.9a39,39,0,0,0-39-38.9Z" transform="translate(-192.8 -629)"/>
        </g>
        <path class="cls-4" d="M1999.5,1834.9a5.2,5.2,0,0,1-5.2-5.2V1728.1a5.2,5.2,0,1,1,10.3,0v101.6a5.1,5.1,0,0,1-5.1,5.2Z" transform="translate(-192.8 -629)"/>
        <path class="cls-4" d="M1999.5,1759.9a3.8,3.8,0,0,1-2.7-1l-19.8-19a3.9,3.9,0,1,1,5.3-5.6l19.8,18.9a3.9,3.9,0,0,1-2.6,6.7Z" transform="translate(-192.8 -629)"/>
        <path class="cls-4" d="M1999.5,1771.9a4,4,0,0,1-2.9-1.2,3.9,3.9,0,0,1,.2-5.5l17-16.2a3.8,3.8,0,0,1,5.5.1,3.9,3.9,0,0,1-.2,5.5l-17,16.2a3.4,3.4,0,0,1-2.6,1.1Z" transform="translate(-192.8 -629)"/>
      </g>
      <g>
        <path class="cls-33" d="M1908.9,1829.7a37.4,37.4,0,0,0-74.7,0Z" transform="translate(-192.8 -629)"/>
        <path class="cls-4" d="M1913,1833.6h-82.9l.2-4.1a41.3,41.3,0,0,1,82.4,0l.3,4.1Zm-74.4-7.7h65.9a33.4,33.4,0,0,0-65.9,0Z" transform="translate(-192.8 -629)"/>
      </g>
      <path class="cls-2" d="M532.5,2055.9c.4,0,2.2-.7,1.3-.7s-2.2.7-1.3.7Z" transform="translate(-192.8 -629)"/>
      <path d="M2271.8,1873.2H260.1a5.2,5.2,0,0,1-5.2-5.2,5.2,5.2,0,0,1,5.2-5.2H2271.8a5.1,5.1,0,0,1,5.1,5.2,5.2,5.2,0,0,1-5.1,5.2Z" transform="translate(-192.8 -629)"/>
    </g>
  </g>
</svg>
